<svg version="1.1" xmlns="http://www.w3.org/2000/svg" xmlns:xlink="http://www.w3.org/1999/xlink" x="0px" y="0px" viewBox="0 0 1000 1000" enable-background="new 0 0 1000 1000" xml:space="preserve" width="400" height="400">
<metadata fill="#ffffff"> Svg Vector Icons : http://www.onlinewebfonts.com/icon </metadata>
<g fill="#ffffff"><g transform="translate(0.000000,512.000000) scale(0.100000,-0.100000)" fill="#ffffff"><path d="M708.4,4997.1c-291.1-80.4-528.5-331.3-589.8-624.3c-17.2-78.5-21.1-1143.3-17.2-4320.3l5.7-4213l70.9-143.6c88.1-178.1,233.6-321.7,411.7-406l130.2-61.3l4213.1-5.7c3142.6-3.8,4239.9,0,4318.4,15.3c306.4,65.1,564.9,325.6,630,632c17.2,78.5,21.1,1143.3,17.2,4318.4l-5.7,4213.1l-61.3,130.2c-84.2,178.1-227.9,323.7-406,411.7l-143.6,70.9l-4241.8,3.8C1648.7,5020.1,779.3,5016.2,708.4,4997.1z M9299.2,4646.6c90-47.9,181.9-141.7,231.7-235.5c34.5-65.1,36.4-208.7,36.4-4289.7c0-4080.9-1.9-4224.5-36.4-4289.7c-49.8-93.8-141.7-187.7-231.7-235.5l-76.6-42.1H5000c-4080.9,0-4224.6,1.9-4289.7,36.4c-93.8,49.8-187.7,141.7-235.5,231.7l-42.1,76.6V121.4c0,4080.9,1.9,4224.6,36.4,4289.7c68.9,130.2,185.8,229.8,317.9,270c26.8,7.7,1936.1,13.4,4241.8,11.5l4193.9-3.8L9299.2,4646.6z" fill="#ffffff"></path><path d="M1032.1,4169.8C965,4135.3,921,4051.1,921,3961c0-139.8,103.4-239.4,249-239.4c68.9,0,91.9,11.5,155.1,74.7c63.2,63.2,74.7,86.2,74.7,155.1c0,147.5-99.6,249-243.2,249C1116.3,4198.5,1060.8,4187,1032.1,4169.8z" fill="#ffffff"></path><path d="M8719,4173.6c-109.2-59.4-151.3-226-88.1-337c122.6-206.8,448.1-116.8,448.1,124.5c0,143.6-97.7,239.4-243.2,239.4C8795.6,4198.5,8743.9,4188.9,8719,4173.6z" fill="#ffffff"></path><path d="M4808.5,3382.7c-283.4-23-656.9-132.1-890.5-262.4c-513.2-289.2-902-835-1026.5-1442c-38.3-185.8-30.6-191.5,492.2-402.2c555.4-226,568.8-224.1,668.3,42.1c101.5,271.9,331.3,561.1,522.8,658.8c264.3,134.1,624.3,130.2,892.4-13.4c141.7-74.7,335.1-275.8,406-425.1c82.3-170.4,109.2-300.7,99.6-474.9c-19.2-294.9-155.1-455.8-676-806.2c-513.2-342.8-687.5-497.9-810.1-716.2c-107.2-189.6-128.3-283.4-128.3-580.3c0-262.3,1.9-270,51.7-337c91.9-120.6,134.1-130.2,587.9-130.2c453.9,0,499.8,9.6,586,122.5c36.4,47.9,55.5,101.5,67,189.6c7.6,67,32.6,155.1,53.6,197.2c51.7,99.6,214.5,249,432.8,396.4c490.2,327.5,723.9,534.3,886.7,783.2c203,310.2,264.3,561.1,249,1009.2c-13.4,390.7-76.6,637.7-247.1,963.3C6673.7,2831.2,5992,3296.5,5229.8,3377C5051.7,3394.2,4980.8,3396.1,4808.5,3382.7z M5191.5,3051.4c451.9-47.9,829.2-224.1,1162.4-541.9c260.4-249,429-530.5,534.3-884.7c72.8-252.8,86.2-643.5,28.7-871.3c-103.4-411.7-289.2-628.1-898.1-1037.9c-452-304.5-647.3-534.3-683.7-798.6l-13.4-97.7h-323.7h-323.6v151.3c0,400.3,136,568.8,840.7,1039.9c635.8,425.1,808.2,685.6,781.3,1173.9c-17.2,342.8-130.2,586-386.8,842.6c-258.5,256.6-540,373.4-907.7,373.4c-218.3,0-361.9-32.6-555.4-126.4c-239.4-116.8-503.7-402.2-635.8-687.5c-24.9-51.7-46-97.7-47.9-101.5c-3.8-9.6-494.1,189.6-513.2,206.8c-40.2,40.2,137.9,455.8,283.4,660.7c279.6,390.7,727.7,641.5,1246.7,699C4973.2,3072.5,4990.4,3072.5,5191.5,3051.4z" fill="#ffffff"></path><path d="M4572.9-1860.6c-91.9-32.6-162.8-95.7-197.3-176.2c-38.3-88.1-38.3-823.5,0-911.5c32.6-80.4,126.4-158.9,218.3-185.8c91.9-24.9,720.1-24.9,812,0c91.9,26.8,185.7,105.3,218.3,185.8c38.3,88.1,38.3,823.5,0,911.5c-32.6,80.4-126.4,158.9-218.3,185.8C5298.7-1822.3,4661-1828.1,4572.9-1860.6z M5325.6-2492.6v-335.1H5000h-325.6v335.1v335.1H5000h325.6V-2492.6z" fill="#ffffff"></path><path d="M1028.2-3515.2c-72.8-49.8-105.3-109.1-107.2-199.2c0-145.5,95.8-243.2,239.4-243.2c241.3,0,331.3,325.6,124.5,448.1C1212.1-3467.3,1097.2-3471.2,1028.2-3515.2z" fill="#ffffff"></path><path d="M8713.3-3511.4c-204.9-126.4-114.9-446.2,126.4-446.2c141.7,0,239.4,97.7,239.4,239.4C9079-3532.4,8868.4-3413.7,8713.3-3511.4z" fill="#ffffff"></path></g></g>
</svg>